<svg version="1.0" xmlns="http://www.w3.org/2000/svg"
 width="48.000000pt" height="48.000000pt" viewBox="0 0 48.000000 48.000000"
 preserveAspectRatio="xMidYMid meet">
  <g transform="translate(0.000000,48.000000) scale(0.100000,-0.100000)"
     fill="#FFEE93" stroke="none">
    <path d="M471 469 c-2 -23 -51 -65 -93 -80 -41 -14 -41 -29 -1 -29 19 0 24 -4
    19 -16 -3 -9 -6 -17 -6 -20 0 -14 -77 -38 -144 -45 -43 -4 -101 -16 -128 -26
    -62 -22 -122 -72 -113 -94 6 -17 143 -79 175 -79 11 0 20 -4 20 -10 0 -5 5
    -10 10 -10 6 0 10 7 10 15 0 8 7 15 15 15 9 0 39 12 67 26 l52 26 -33 17 c-43
    20 -60 46 -43 63 9 9 21 7 57 -10 25 -12 50 -22 56 -22 20 0 41 73 35 124 -5
    43 -2 53 25 91 18 25 29 51 26 61 -3 14 -5 15 -6 3z m-75 -163 c-17 -27 -70
    -46 -130 -46 -21 0 -65 -7 -98 -16 -33 -8 -62 -13 -65 -10 -8 8 68 26 147 35
    89 10 125 23 142 50 7 11 14 18 16 16 3 -2 -3 -16 -12 -29z m-156 -76 c0 -5
    -4 -10 -10 -10 -5 0 -10 5 -10 10 0 6 5 10 10 10 6 0 10 -4 10 -10z m-42 -51
    c26 -28 32 -30 51 -19 27 14 35 8 27 -18 -7 -21 -52 -42 -90 -42 -32 0 -166
    54 -163 65 2 6 19 10 38 10 19 0 45 8 59 18 34 24 45 22 78 -14z"/>
    <path d="M280 205 c0 -9 37 -33 94 -60 52 -25 97 -45 100 -45 15 0 3 17 -22
    31 -15 9 -54 33 -86 53 -65 39 -86 44 -86 21z"/>
    <path d="M163 3 c42 -2 112 -2 155 0 42 1 7 3 -78 3 -85 0 -120 -2 -77 -3z"/>
  </g>
</svg>
